<svg width="26" height="33" viewBox="0 0 26 33" fill="none" xmlns="http://www.w3.org/2000/svg">
<path fill-rule="evenodd" clip-rule="evenodd" d="M18.1874 32.0186C20.8858 31.7564 23.4378 30.7578 25.5791 29.126L20.3269 28.0623L21.2414 23.3031C20.0844 24.1848 18.7055 24.7244 17.2474 24.8661C15.7894 25.0077 14.3052 24.7463 12.9485 24.1088C11.5918 23.4713 10.4119 22.4809 9.531 21.2402C8.65007 19.9995 8.10009 18.5535 7.93801 17.052C7.77593 15.5505 8.00764 14.0479 8.60914 12.6999C9.21065 11.352 10.1601 10.2075 11.3592 9.38505C12.5583 8.56259 13.9634 8.09204 15.4292 8.0221C16.895 7.95215 18.3681 8.28536 19.6961 8.98722L24.8046 7.32322L22.7192 2.63159C20.2615 1.33265 17.5352 0.71598 14.8225 0.845426C12.1098 0.974872 9.50924 1.84573 7.29007 3.36784C5.0709 4.88995 3.31377 7.008 2.20056 9.50274C1.08735 11.9975 0.658535 14.7782 0.958498 17.5571C1.25846 20.336 2.2763 23.0121 3.90665 25.3082C5.537 27.6044 7.72061 29.4373 10.2314 30.6171C12.7423 31.7969 15.489 32.2808 18.1874 32.0186ZM15.6614 21.2889C18.3281 21.2549 20.5174 19.0568 20.5515 16.3793C20.5856 13.7019 18.4514 11.5591 15.7848 11.5931C13.1182 11.6272 10.9288 13.8253 10.8948 16.5027C10.8607 19.1801 12.9948 21.323 15.6614 21.2889Z" fill="#1E1E1E"/>
</svg>
