<svg width="60" height="25" viewBox="0 0 60 25" fill="none" xmlns="http://www.w3.org/2000/svg">
<path d="M15.904 19.744H7.008L5.536 24H0.832L8.864 1.632H14.08L22.112 24H17.376L15.904 19.744ZM14.688 16.16L11.456 6.816L8.224 16.16H14.688ZM34.9383 6.016C37.0503 6.016 38.7569 6.688 40.0583 8.032C41.3596 9.35467 42.0103 11.2107 42.0103 13.6V24H37.5303V14.208C37.5303 12.8 37.1783 11.7227 36.4743 10.976C35.7703 10.208 34.8103 9.824 33.5943 9.824C32.3569 9.824 31.3756 10.208 30.6503 10.976C29.9463 11.7227 29.5943 12.8 29.5943 14.208V24H25.1143V6.272H29.5943V8.48C30.1916 7.712 30.9489 7.11467 31.8663 6.688C32.8049 6.24 33.8289 6.016 34.9383 6.016ZM50.7505 0.32V24H46.2705V0.32H50.7505ZM57.1608 24.224C56.3501 24.224 55.6781 23.9787 55.1448 23.488C54.6328 22.976 54.3768 22.3467 54.3768 21.6C54.3768 20.8533 54.6328 20.2347 55.1448 19.744C55.6781 19.232 56.3501 18.976 57.1608 18.976C57.9501 18.976 58.6008 19.232 59.1128 19.744C59.6248 20.2347 59.8808 20.8533 59.8808 21.6C59.8808 22.3467 59.6248 22.976 59.1128 23.488C58.6008 23.9787 57.9501 24.224 57.1608 24.224Z" fill="white"/>
</svg>
