<svg width="31" height="31" viewBox="0 0 31 31" fill="none" xmlns="http://www.w3.org/2000/svg">
<path fill-rule="evenodd" clip-rule="evenodd" d="M10.8109 10.5504V10.2899H20.4496V20.4496V20.7101H10.8109V10.5504ZM9.17879 20.7101C8.38926 20.5832 7.61536 20.3645 6.87313 20.0571C5.6247 19.54 4.49035 18.782 3.53484 17.8265C2.57934 16.871 1.82139 15.7366 1.30427 14.4882C0.787153 13.2398 0.520996 11.9017 0.520996 10.5504C0.520996 9.19913 0.787153 7.86107 1.30427 6.61264C1.82139 5.36421 2.57934 4.22986 3.53484 3.27435C4.49035 2.31885 5.6247 1.5609 6.87313 1.04378C8.12156 0.526664 9.45962 0.260507 10.8109 0.260507L10.8109 7.48121C10.9195 7.09833 11.0505 6.72131 11.2034 6.35214C11.7206 5.10371 12.4785 3.96935 13.434 3.01385C14.3895 2.05834 15.5239 1.30039 16.7723 0.783273C18.0207 0.266156 19.3588 -1.90734e-06 20.7101 0C22.0614 5.90772e-08 23.3994 0.266157 24.6479 0.783274C25.8963 1.30039 27.0306 2.05834 27.9862 3.01385C28.9417 3.96935 29.6996 5.10371 30.2167 6.35214C30.7338 7.60057 31 8.93863 31 10.2899L22.0817 10.2899C22.8712 10.4168 23.6451 10.6355 24.3874 10.9429C25.6358 11.46 26.7701 12.218 27.7256 13.1735C28.6812 14.129 29.4391 15.2634 29.9562 16.5118C30.4733 17.7602 30.7395 19.0983 30.7395 20.4496C30.7395 21.8009 30.4733 23.1389 29.9562 24.3874C29.4391 25.6358 28.6812 26.7701 27.7256 27.7256C26.7701 28.6812 25.6358 29.4391 24.3874 29.9562C23.1389 30.4733 21.8009 30.7395 20.4496 30.7395L20.4496 22.3422C20.3227 23.1317 20.104 23.9056 19.7966 24.6479C19.2794 25.8963 18.5215 27.0306 17.566 27.9861C16.6105 28.9417 15.4761 29.6996 14.2277 30.2167C12.9793 30.7338 11.6412 31 10.2899 31C8.93863 31 7.60057 30.7338 6.35214 30.2167C5.10371 29.6996 3.96935 28.9417 3.01385 27.9861C2.05834 27.0306 1.30039 25.8963 0.783273 24.6479C0.266156 23.3994 0 22.0614 0 20.7101H9.17879Z" fill="#1E1E1E"/>
</svg>
