<svg width="23" height="31" viewBox="0 0 23 31" fill="none" xmlns="http://www.w3.org/2000/svg">
<path fill-rule="evenodd" clip-rule="evenodd" d="M6.89631 19.8801C8.25169 20.3994 9.70437 20.6667 11.1714 20.6667V10.3333L11.1714 0C9.70437 0 8.25169 0.267279 6.89631 0.786578C5.54093 1.30588 4.3094 2.06702 3.27204 3.02656C2.23467 3.9861 1.41179 5.12524 0.850374 6.37894C0.288958 7.63263 6.41267e-08 8.97634 0 10.3333C-6.41266e-08 11.6903 0.288957 13.034 0.850374 14.2877C1.41179 15.5414 2.23467 16.6806 3.27203 17.6401C4.3094 18.5996 5.54093 19.3608 6.89631 19.8801ZM16.1037 11.1199C14.7483 10.6006 13.2956 10.3333 11.8286 10.3333V20.6667L11.8286 31C13.2956 31 14.7483 30.7327 16.1037 30.2134C17.4591 29.6941 18.6906 28.933 19.728 27.9734C20.7653 27.0139 21.5882 25.8748 22.1496 24.6211C22.711 23.3674 23 22.0237 23 20.6667C23 19.3097 22.711 17.966 22.1496 16.7123C21.5882 15.4586 20.7653 14.3194 19.728 13.3599C18.6906 12.4004 17.4591 11.6392 16.1037 11.1199Z" fill="#1E1E1E"/>
</svg>
