<svg width="25" height="31" viewBox="0 0 25 31" fill="none" xmlns="http://www.w3.org/2000/svg">
<path fill-rule="evenodd" clip-rule="evenodd" d="M12.6892 3.36883C13.6221 3.36883 14.3784 2.61469 14.3784 1.68442C14.3784 0.754139 13.6221 0 12.6892 0C11.7563 0 11 0.754139 11 1.68442C11 2.61469 11.7563 3.36883 12.6892 3.36883ZM23.6562 4.8006C23.6562 6.4043 23.3632 7.9923 22.7939 9.47393C22.2247 10.9556 21.3902 12.3018 20.3383 13.4358C19.2864 14.5698 18.0376 15.4693 16.6632 16.083C15.2888 16.6967 13.8158 17.0126 12.3281 17.0126C10.8405 17.0126 9.36743 16.6967 7.99304 16.083C6.61865 15.4693 5.36984 14.5698 4.31793 13.4358C3.26602 12.3018 2.43159 10.9556 1.8623 9.47393C1.29301 7.9923 1 6.4043 1 4.8006L12.3281 4.8006H23.6562ZM25 17.5247C25 19.2943 24.6767 21.0466 24.0485 22.6815C23.4203 24.3164 22.4996 25.8019 21.3388 27.0532C20.1781 28.3045 18.8001 29.2971 17.2835 29.9743C15.767 30.6514 14.1415 31 12.5 31C10.8585 31 9.23303 30.6514 7.71646 29.9743C6.19989 29.2971 4.8219 28.3045 3.66116 27.0532C2.50043 25.8019 1.57969 24.3164 0.951505 22.6815C0.323322 21.0466 0 19.2943 0 17.5247L12.5 17.5247H25Z" fill="#1E1E1E"/>
</svg>
